<svg width="158" height="39" viewBox="0 0 158 39" fill="none" xmlns="http://www.w3.org/2000/svg">
<g clip-path="url(#clip0_9_8)">
<path fill-rule="evenodd" clip-rule="evenodd" d="M6.90282 1.86353L2.43424 6.91985V1.86353H0V12.7207H2.43424V9.99111L3.97529 8.26924L7.08748 12.7207H9.99985L5.67018 6.37699L9.73791 1.86353H6.90282Z" fill="white"/>
<path fill-rule="evenodd" clip-rule="evenodd" d="M20.6412 3.6095C20.1583 3.92306 19.7767 4.35038 19.4969 4.89218C19.2165 5.43424 19.0768 6.02924 19.0768 6.6772C19.0768 7.33595 19.2192 7.93586 19.504 8.47767C19.7888 9.01972 20.1703 9.44998 20.6483 9.76869C21.1263 10.0874 21.6453 10.2468 22.2055 10.2468C22.7656 10.2468 23.2797 10.0901 23.7481 9.77653C24.2163 9.46322 24.5882 9.0332 24.8636 8.48576C25.1386 7.9388 25.2764 7.33595 25.2764 6.6772C25.2764 6.02924 25.1386 5.43424 24.8636 4.89218C24.5882 4.35038 24.2163 3.92306 23.7481 3.6095C23.2797 3.29643 22.7656 3.13953 22.2055 3.13953C21.6453 3.13953 21.1238 3.29643 20.6412 3.6095ZM24.9432 1.68915C25.7735 2.18879 26.4278 2.87647 26.906 3.75292C27.3838 4.62937 27.6229 5.60413 27.6229 6.6772C27.6229 7.75028 27.3838 8.72749 26.906 9.60933C26.4278 10.4912 25.7735 11.1842 24.9432 11.6888C24.1127 12.1936 23.1905 12.4456 22.1766 12.4456C21.1626 12.4456 20.2403 12.1936 19.4099 11.6888C18.5794 11.1842 17.9251 10.4936 17.4471 9.61718C16.9691 8.74073 16.7302 7.76082 16.7302 6.6772C16.7302 5.60413 16.9691 4.62937 17.4471 3.75292C17.9251 2.87647 18.5769 2.18879 19.4026 1.68915C20.2282 1.19 21.1528 0.94043 22.1766 0.94043C23.1905 0.94043 24.1127 1.19 24.9432 1.68915Z" fill="white"/>
<path fill-rule="evenodd" clip-rule="evenodd" d="M35.9084 1.1156H38.1973V10.0713H42.5428V12.2704H35.9084V1.1156Z" fill="white"/>
<path fill-rule="evenodd" clip-rule="evenodd" d="M50.6831 1.1156H58.4038V3.20315H52.972V5.62534H57.8532V7.71289H52.972V10.1829H58.5629V12.2704H50.6831V1.1156Z" fill="white"/>
<mask id="mask0_9_8" style="mask-type:alpha" maskUnits="userSpaceOnUse" x="66" y="0" width="9" height="13">
<path d="M66.3124 0.908447H74.7574V12.4138H66.3124V0.908447Z" fill="white"/>
</mask>
<g mask="url(#mask0_9_8)">
<path fill-rule="evenodd" clip-rule="evenodd" d="M72.1572 3.38654C71.5729 3.17938 71.0733 3.07567 70.6579 3.07567C70.2619 3.07567 69.9484 3.15535 69.7166 3.31495C69.4849 3.47406 69.3688 3.70794 69.3688 4.01587C69.3688 4.40911 69.5355 4.70918 69.8686 4.91634C70.202 5.12351 70.7159 5.33851 71.4111 5.56161C72.1064 5.78471 72.6787 6.0078 73.1277 6.23114C73.5768 6.454 73.9607 6.78864 74.2792 7.23483C74.5981 7.68103 74.7574 8.27064 74.7574 9.00367C74.7574 9.71562 74.5856 10.329 74.2431 10.8443C73.9001 11.3597 73.4295 11.7502 72.8307 12.0155C72.2319 12.281 71.5511 12.4139 70.7883 12.4139C69.9676 12.4139 69.1613 12.2545 68.3695 11.9358C67.5775 11.6171 66.8921 11.1817 66.3124 10.6291L67.225 8.57341C67.7369 9.08335 68.3261 9.49252 68.9924 9.80045C69.6587 10.1086 70.2671 10.2626 70.8173 10.2626C71.2904 10.2626 71.6598 10.167 71.9255 9.97574C72.1909 9.78451 72.3239 9.50846 72.3239 9.14709C72.3239 8.86025 72.2346 8.62392 72.0558 8.43809C71.8771 8.25225 71.6505 8.10074 71.375 7.9838C71.0998 7.86711 70.7208 7.73447 70.2381 7.58541C69.5428 7.37311 68.9754 7.1608 68.536 6.948C68.0963 6.73569 67.7177 6.41183 67.3988 5.97618C67.0804 5.54052 66.921 4.9617 66.921 4.23921C66.921 3.56967 67.085 2.983 67.4135 2.47821C67.7418 1.97367 68.2004 1.58583 68.7896 1.31492C69.3783 1.04402 70.064 0.908447 70.8462 0.908447C71.5415 0.908447 72.2272 1.02 72.9033 1.24309C73.579 1.46619 74.1778 1.76381 74.6992 2.13548L73.8157 4.22303C73.2944 3.87245 72.7413 3.5937 72.1572 3.38654Z" fill="white"/>
</g>
<path fill-rule="evenodd" clip-rule="evenodd" d="M90.1549 1.1156H92.3276V12.2704H90.242L85.3314 5.09947V12.2704H83.1442V1.1156H85.23L90.1549 8.31844V1.1156Z" fill="white"/>
<mask id="mask1_9_8" style="mask-type:alpha" maskUnits="userSpaceOnUse" x="0" y="0" width="158" height="39">
<path d="M0 38.7778H157.815V0.908447H0V38.7778Z" fill="white"/>
</mask>
<g mask="url(#mask1_9_8)">
<path fill-rule="evenodd" clip-rule="evenodd" d="M101.338 12.2704H103.626V1.1156H101.338V12.2704Z" fill="white"/>
<path fill-rule="evenodd" clip-rule="evenodd" d="M122.051 12.2704H119.313L116.387 7.69696L114.939 9.46579V12.2704H112.65V1.1156H114.939V6.31057L119.14 1.1156H121.805L117.98 5.75283L122.051 12.2704Z" fill="white"/>
<path fill-rule="evenodd" clip-rule="evenodd" d="M133.291 3.6095C132.809 3.92306 132.427 4.35038 132.147 4.89218C131.867 5.43424 131.727 6.02924 131.727 6.6772C131.727 7.33595 131.87 7.93586 132.154 8.47767C132.439 9.01972 132.821 9.44998 133.299 9.76869C133.777 10.0874 134.296 10.2468 134.856 10.2468C135.416 10.2468 135.93 10.0901 136.398 9.77653C136.867 9.46322 137.239 9.0332 137.514 8.48576C137.789 7.9388 137.927 7.33595 137.927 6.6772C137.927 6.02924 137.789 5.43424 137.514 4.89218C137.239 4.35038 136.867 3.92306 136.398 3.6095C135.93 3.29643 135.416 3.13953 134.856 3.13953C134.296 3.13953 133.774 3.29643 133.291 3.6095ZM137.594 1.68915C138.424 2.18879 139.078 2.87647 139.556 3.75292C140.034 4.62937 140.273 5.60413 140.273 6.6772C140.273 7.75028 140.034 8.72749 139.556 9.60933C139.078 10.4912 138.424 11.1842 137.594 11.6888C136.763 12.1936 135.841 12.4456 134.827 12.4456C133.813 12.4456 132.891 12.1936 132.06 11.6888C131.23 11.1842 130.575 10.4936 130.098 9.61718C129.619 8.74073 129.381 7.76082 129.381 6.6772C129.381 5.60413 129.619 4.62937 130.098 3.75292C130.575 2.87647 131.228 2.18879 132.053 1.68915C132.879 1.19 133.803 0.94043 134.827 0.94043C135.841 0.94043 136.763 1.19 137.594 1.68915Z" fill="white"/>
<path fill-rule="evenodd" clip-rule="evenodd" d="M147.444 1.1156H149.906L152.673 9.52954L155.454 1.1156H157.815L153.788 12.2704H151.427L147.444 1.1156Z" fill="white"/>
<path fill-rule="evenodd" clip-rule="evenodd" d="M65.235 23.5348L64.8109 24.4286C64.9876 23.9817 65.1467 23.5544 65.235 23.5348ZM64.7581 24.5647L64.5814 24.992C64.6344 24.8756 64.705 24.7199 64.7581 24.5647ZM63.0094 28.587C62.8503 28.9756 62.7268 29.3642 62.5855 29.7334C62.7268 29.3838 62.8679 29.034 62.9918 28.6648C62.9918 28.6454 62.9918 28.626 63.0094 28.587ZM65.9414 21.4945C64.5285 23.6902 63.6452 26.2941 62.6562 28.7229C62.0732 30.1414 61.5785 31.6185 61.1901 33.1147C61.0134 33.7948 60.8721 34.4748 60.7484 35.1748L60.8366 34.8053C61.031 33.8921 61.3138 32.9786 61.6139 32.1041C62.2497 30.1804 62.8503 28.1982 63.6452 26.3522C64.3518 24.7005 64.9876 22.9905 65.9414 21.4945ZM60.6778 37.1954C60.6956 37.215 60.7132 37.2344 60.7308 37.2344L60.6778 37.1954ZM67.0012 25.2448C67.0188 25.5166 66.7187 25.7307 66.5067 25.7888C66.277 25.8665 66.012 25.7111 65.8003 25.75C65.6764 25.7888 65.7118 25.8471 65.606 25.8859C65.4469 25.9442 65.2526 25.9248 65.0937 25.9248C64.8639 25.9248 64.3694 25.7888 64.1751 25.9248C64.1397 25.9442 64.1045 25.9829 64.069 26.0415L64.1221 25.9248C64.0162 25.9442 63.8395 26.4691 63.716 26.8187L63.9101 26.3911L63.6628 27.1296C63.4863 27.5375 63.3274 27.9651 63.1685 28.373C62.8503 29.1892 62.5679 29.9859 62.2851 30.8217C61.8083 32.3373 61.3314 33.9308 61.0134 35.5045C60.9603 35.7769 60.6602 36.9039 60.9958 37.0593C61.0486 37.0981 61.4196 36.8652 61.402 36.8845C61.4903 36.7874 61.5963 36.6901 61.6846 36.5737C61.6139 36.6318 61.4196 36.8068 61.4196 36.7678C61.402 36.6511 61.8437 36.2626 61.9143 36.1655C62.0908 35.9713 62.2497 35.7573 62.4088 35.5631L63.4332 34.1833C64.069 33.3089 64.6698 32.4152 65.3056 31.5408C65.4469 31.3461 65.7649 30.6663 65.9944 30.6082C66.277 30.5493 66.33 30.8604 66.2418 31.1132C66.0827 31.6378 65.606 32.0654 65.3586 32.5314C64.917 33.3476 64.387 34.1056 63.8747 34.883C63.3096 35.7185 62.7444 36.5541 62.1263 37.3508C61.8437 37.7394 61.4727 38.2834 61.031 38.5168C60.6956 38.6916 60.2539 38.4781 59.9713 38.2447C59.6533 38.0115 59.4766 37.6619 59.406 37.2731C59.3884 37.1564 59.2825 36.5347 59.3884 36.3989V36.6901L59.4238 36.3013C59.3884 36.3795 59.3884 36.1265 59.3884 36.0878C59.3884 35.9321 59.4238 35.7573 59.459 35.6021C59.4944 35.291 59.5651 34.9995 59.6357 34.6884C59.7594 34.0863 59.9007 33.4839 60.0065 32.8619C60.095 32.2404 60.2891 31.6572 60.4658 31.0745C60.5013 30.9771 60.8545 29.7918 60.9427 29.7918C60.9603 29.7918 60.9075 30.0249 60.9075 30.0443C60.9779 29.753 61.0842 29.4615 61.1725 29.1698C61.137 29.2671 61.0842 29.3642 61.0842 29.3255C61.0842 29.0923 61.3138 28.6841 61.3844 28.4704L61.5963 27.7903C61.7904 27.1683 61.985 26.5468 62.2321 25.9636C61.7376 26.0026 61.2607 25.9636 60.8014 26.0609C60.1302 26.1967 59.2825 26.1193 58.6113 26.0222C58.5228 26.0026 58.099 25.9829 58.2048 25.7694C58.2403 25.7111 58.6289 25.614 58.6996 25.5946C59.0352 25.4583 59.3884 25.4583 59.7418 25.4389C60.4304 25.3612 61.1018 25.4002 61.7904 25.3031C61.9671 25.2835 62.2675 25.3418 62.4264 25.2641C62.5855 25.206 62.5855 25.0697 62.6562 24.8949C62.7796 24.5451 62.9209 24.1952 63.0622 23.865C63.2213 23.4958 63.3626 23.1072 63.5745 22.777C63.716 22.5629 63.8571 22.5048 63.9632 22.2714C64.1751 21.747 64.4225 21.2222 64.7581 20.7755C65.1113 20.2702 65.7294 20.1922 66.277 20.3089C66.5419 20.3673 66.913 20.5421 66.7893 20.9307C66.7363 21.0863 66.5598 21.1834 66.4537 21.2999C66.4537 21.3192 66.6126 21.1251 66.6126 21.2028C66.595 21.3389 65.9414 22.33 65.8886 22.3107C65.8707 22.3107 66.1357 21.8245 66.1535 21.7858C65.4821 22.8741 64.917 24.0594 64.387 25.2448C64.4401 25.2448 64.4931 25.1668 64.5637 25.031C64.5107 25.1474 64.4755 25.2254 64.4755 25.2448C65.1643 25.206 65.8707 25.206 66.5774 25.1668C66.7187 25.1668 66.9836 24.9533 67.0012 25.2254V25.2448Z" fill="white"/>
<path fill-rule="evenodd" clip-rule="evenodd" d="M69.1387 31.7543L68.7677 32.6288L69.1387 31.7737V31.7543ZM67.2133 30.1027C67.2312 30.1414 67.3372 30.2387 67.3372 30.2387C67.4255 30.3165 67.5492 30.3552 67.6904 30.3746C67.5315 30.3552 67.3724 30.3358 67.2842 30.2584C67.249 30.2387 67.2133 30.1414 67.2133 30.1027ZM66.7012 36.5347C66.7012 36.5154 66.6836 36.496 66.6836 36.496C66.6836 36.5154 66.7012 36.5154 66.7012 36.5347ZM66.666 34.6303C66.7895 34.125 66.9838 33.6394 67.1605 33.1728L67.4961 32.318C67.5844 32.1429 67.9552 31.1907 68.0436 31.1326C67.92 31.1713 67.6728 31.8713 67.6374 31.9294C67.4785 32.2599 67.3372 32.5898 67.2133 32.9397C67.0016 33.4839 66.7895 34.0476 66.666 34.6303ZM66.6306 34.6303C66.6306 34.6691 66.613 34.6884 66.613 34.708C66.613 34.6884 66.6306 34.6691 66.6306 34.6303ZM66.5775 34.9993V35.0191C66.5775 34.9993 66.5952 34.9799 66.5952 34.9605C66.5952 34.9799 66.5775 34.9799 66.5775 34.9993ZM66.7895 36.6902C66.7719 36.6706 66.7543 36.6512 66.7543 36.6318L66.7719 36.6512C66.6836 36.4376 66.5951 36.2239 66.5599 36.1072L66.613 36.3597L66.5423 35.9517V35.9321C66.5247 35.8934 66.5247 35.874 66.5247 35.874C66.5247 35.874 66.5247 35.8934 66.5423 35.9128V35.8157C66.5247 35.5438 66.5423 35.291 66.5775 35.0385V35.0191C66.5423 35.1939 66.5247 35.3494 66.5247 35.5438C66.5069 35.7767 66.5247 36.0491 66.5775 36.282C66.5952 36.3401 66.7367 36.6706 66.8425 36.8265C66.8425 36.8066 66.8425 36.7872 66.8249 36.7872C66.931 36.9039 67.0723 37.001 67.2312 37.0594C67.0368 36.9814 66.8955 36.8265 66.7895 36.6705V36.6902ZM72.2652 31.4437C72.1239 31.7737 71.9475 32.0848 71.7529 32.3957C71.3467 33.0566 70.9052 33.7171 70.4811 34.3778C70.0573 35.0191 69.5982 35.6602 69.0329 36.1849C68.9268 36.2626 68.1143 36.9814 68.0615 36.962C68.0615 36.9427 68.0791 36.9233 68.0967 36.9039L67.973 36.962C68.0615 36.9427 67.7256 37.1952 67.6374 37.2344C67.39 37.2925 67.1251 37.2151 66.9134 37.0594C66.6836 36.9039 66.5599 36.6706 66.4539 36.3987C66.2774 35.9711 66.2598 35.5632 66.3304 35.0966C66.348 34.9993 66.5952 33.8725 66.7191 33.8921C66.7543 33.8921 66.6836 34.0476 66.7012 34.0669L66.8249 33.581C66.7719 33.5617 67.708 31.3849 67.7965 31.2493C67.2666 31.3655 66.5951 31.3461 66.2243 30.8411C66.1185 30.6857 66.1537 30.5494 66.1185 30.4329C66.0652 30.2777 65.9948 30.1998 65.9594 30.0639C65.7829 29.1117 66.7895 27.7903 67.6374 28.4314L67.602 28.3731C67.6198 28.2566 67.8317 28.5481 67.8493 28.6452C67.8493 28.7229 67.708 29.2672 67.6198 29.2279C67.602 29.2279 67.7256 28.8783 67.7256 28.859C67.602 29.2279 67.2312 29.6361 67.1957 30.0247C67.1605 30.3165 67.3018 30.3165 67.5315 30.3746C67.8669 30.4719 68.3969 30.4135 68.8207 30.5494C68.5384 30.4525 68.2028 30.4329 67.973 30.3942C67.973 30.3942 67.9552 30.3942 67.9552 30.3746C68.2204 30.4135 68.5029 30.4135 68.7325 30.4719C69.245 30.608 69.5626 30.8215 69.3509 31.4241C69.1387 31.9875 68.874 32.5511 68.6442 33.1147C68.4323 33.6587 68.2556 34.2417 68.0615 34.8051C68.0084 34.9993 67.6198 35.8157 67.7611 36.0101C67.9376 36.2432 68.9092 35.2717 69.1739 34.9605C69.1211 35.0191 69.0681 35.0191 69.0329 35.0579C68.9974 35.0579 69.3861 34.5136 69.4391 34.4361L69.9512 33.7171L70.9052 32.3373L71.8768 30.8995C71.9651 30.7828 72.3887 30.1027 72.4948 30.608C72.5476 30.8798 72.3711 31.2103 72.2652 31.4437Z" fill="white"/>
<path fill-rule="evenodd" clip-rule="evenodd" d="M75.692 31.2686L75.6037 31.4049C75.5861 31.463 75.5328 31.7349 75.5328 31.7349L75.692 31.2686ZM75.2681 30.3358V30.5299C75.3209 30.4718 75.3209 30.4137 75.2681 30.3358ZM75.2151 30.4718C75.2151 30.3164 74.8619 29.2477 74.9501 29.1698C74.9677 29.1504 75.1266 29.7138 75.1442 29.753C75.0914 29.5196 75.0208 28.8008 74.7028 28.8008C74.12 28.8008 73.6785 29.9862 73.484 30.4331C73.1308 31.3073 72.8128 32.2404 72.6715 33.1926C72.7245 32.9009 73.7492 29.384 74.067 29.4034C73.8196 29.4615 72.8834 32.454 72.8304 32.7261C72.7952 32.8815 72.5124 33.8921 72.7776 33.9892C72.9543 34.0475 73.3781 33.4449 73.4664 33.3088C73.802 32.8619 74.12 32.3958 74.4204 31.9099L74.8795 31.1909C74.9501 31.0551 75.0384 30.9188 75.1266 30.7829C75.2151 30.6275 75.2151 30.6275 75.2151 30.4718ZM79.7014 31.9099C79.4719 32.4927 79.2069 33.0173 78.9243 33.5422C78.589 34.125 78.2531 34.6884 77.8647 35.1941C77.5467 35.6408 77.1052 36.2044 76.5751 36.3013C75.9748 36.4182 75.4976 35.874 75.3033 35.291C74.8795 34.1443 75.1799 32.9396 75.4976 31.8322C75.4976 31.8322 75.4976 31.6572 75.5152 31.5211C75.3388 31.8129 75.0914 32.1625 74.9325 32.4346C74.7203 32.8038 74.5615 33.173 74.3317 33.5229C74.2259 33.6977 72.7776 35.6214 72.5833 35.291C72.5833 35.291 72.7952 35.1941 72.7776 35.1551C72.5657 35.3103 72.2831 35.3496 72.0357 35.2716C72.0885 35.3103 72.124 35.3297 72.1064 35.3297C71.6999 35.3883 71.3821 34.6884 71.2939 34.378C71.1526 33.8335 71.1878 33.2314 71.2763 32.6873C71.4706 31.5601 71.8944 30.3358 72.4948 29.3642C72.6539 29.131 72.8128 28.8589 73.0425 28.6841C73.1838 28.548 73.3075 28.5287 73.4664 28.4122C73.7314 28.1595 73.9609 27.9457 74.3495 27.9457C75.2151 27.9457 75.5685 29.0339 75.745 29.7724C76.1688 29.1698 76.9283 28.373 77.5819 29.2477C77.9351 29.7138 77.7056 30.0639 77.5113 30.4912C77.1757 31.1715 76.9107 32.007 76.7694 32.7067C76.7872 32.6484 76.8401 32.3566 76.9107 32.3373C77.0522 32.2985 75.7802 36.6901 77.5997 34.2223C78.147 33.4645 78.6242 32.6677 79.1011 31.8712C79.313 31.5017 79.5249 31.1132 79.7544 30.7439C79.8603 30.5888 80.1783 30.2196 80.1961 30.6469C80.2313 31.0938 79.8427 31.5407 79.7014 31.9099Z" fill="white"/>
<path fill-rule="evenodd" clip-rule="evenodd" d="M80.9912 32.4733V32.7648C81.0088 32.6677 81.0088 32.5704 80.9912 32.4733ZM80.9382 31.3654V31.385V31.4049C80.9382 31.4242 80.9381 31.4242 80.9558 31.4436C80.9558 31.4242 80.9382 31.4049 80.9382 31.3654ZM80.9382 30.9187V31.2105C80.9382 31.0357 80.9203 30.9187 80.9382 30.9187ZM80.7084 33.173C80.6908 33.2313 80.7084 33.2507 80.7262 33.2507C80.7438 33.1926 80.7438 33.173 80.7084 33.173ZM80.7614 30.6468C80.7438 30.5299 80.7262 30.3943 80.6732 30.297C80.6556 30.2776 80.4965 30.0249 80.4965 30.0832C80.4965 30.1609 80.6025 30.2776 80.6204 30.3551C80.6732 30.4912 80.6908 30.6468 80.7084 30.8023C80.7438 31.1325 80.7438 31.4242 80.7262 31.7542C80.7084 32.1428 80.7614 32.5704 80.7438 32.9396C80.7969 32.4927 80.8145 32.0264 80.8321 31.5601C80.8497 31.2492 80.8145 30.9381 80.7614 30.6468ZM87.3672 31.0357C87.1731 31.3267 86.9436 31.5794 86.6965 31.8128C86.5726 31.9486 86.4841 32.1234 86.3609 32.2598C85.6012 33.212 83.3756 33.8724 83.4287 31.9293C82.8455 32.8231 82.1036 33.5228 81.5739 34.4748C81.2738 34.9994 81.0794 35.427 80.9734 36.0296C80.9558 36.2625 80.9203 36.4959 80.8145 36.6901C80.5495 37.1368 80.0726 37.0593 79.737 36.7874C79.2601 36.3988 79.2956 35.5633 79.3308 34.9411C79.3308 34.7079 79.4544 34.4748 79.472 34.2804C79.472 34.2804 79.4366 33.9308 79.4544 33.9698C79.4366 33.9114 79.4014 33.8528 79.4014 33.6586C79.4014 33.4449 79.4366 33.2701 79.4014 33.0565C79.3838 32.8038 79.3308 32.6483 79.3838 32.3762C79.3838 32.3372 79.472 32.1041 79.472 32.1041C79.472 32.1234 79.4721 32.1622 79.4901 32.1622C79.4901 32.1041 79.4901 32.0264 79.472 31.9486L79.4544 31.968C79.5077 31.8712 79.1897 30.7633 79.2425 30.5299C79.3132 30.2389 79.4901 30.1999 79.6664 30.0832C79.737 30.0249 79.8785 29.8694 80.0374 29.8113C80.2317 29.7334 80.5141 29.7138 80.6556 29.9278C80.7614 30.0638 80.6732 30.1026 80.7262 30.2195C80.7084 30.1609 80.7969 30.1413 80.8145 30.1999C80.8321 30.2583 80.8497 30.5299 80.8321 30.5105L80.7793 30.3745C80.8673 30.7049 80.9027 31.055 80.9382 31.385V31.4049L80.9734 31.9876C80.9734 31.9486 80.9558 31.6959 80.9558 31.463C81.0264 32.2598 81.1677 33.6976 81.1501 33.892C81.3442 33.5812 81.5387 33.2701 81.7506 32.9786C81.8391 32.8231 81.9623 32.7067 82.0684 32.59C82.1747 32.4539 82.1747 32.3179 82.2451 32.2012C82.4216 31.8516 82.7399 31.599 82.9694 31.3073L83.5521 30.6468C83.9229 30.1803 84.2588 29.6169 84.7887 29.2671C85.1245 29.0146 85.9192 29.0339 85.8483 29.6557C85.8131 29.8113 85.7425 29.889 85.6366 29.9859C85.3186 30.297 84.9124 30.4524 84.612 30.8023L84.294 31.1712L84.1881 31.2492C84.1529 31.3654 84.2233 31.346 84.2057 31.385C84.1175 31.6572 83.7997 32.2598 84.0999 32.4346C84.2412 32.512 84.5944 32.4927 84.7357 32.4539C84.9828 32.4152 85.2126 32.1428 85.4599 32.0264C85.707 31.8905 85.9016 31.7155 86.1133 31.5211C86.1839 31.463 87.4559 29.7138 87.5264 30.6856C87.5618 30.8216 87.4383 30.9381 87.3672 31.0357Z" fill="white"/>
<path fill-rule="evenodd" clip-rule="evenodd" d="M88.3924 31.3655C88.9576 31.0355 89.4701 30.5886 89.8761 30.0637L90.1763 29.6361C90.2296 29.5391 90.3178 29.4809 90.353 29.3643C90.3708 29.2669 90.3354 29.1892 90.353 29.0728L90.4237 28.6646C90.4413 28.4701 90.3709 27.9651 90.1057 28.0232C89.9822 28.062 89.8585 28.2372 89.7879 28.3343L89.4701 28.8006C89.0991 29.4032 88.9047 30.0637 88.6396 30.6857C88.6396 30.6857 88.6396 30.705 88.622 30.744C88.5337 30.9382 88.4807 31.152 88.3924 31.3655ZM92.932 30.8995L92.3843 31.696L91.4307 33.0564C91.1831 33.406 90.883 33.7365 90.6356 34.0863C90.3709 34.4749 90.1411 34.8831 89.8409 35.2523C89.5229 35.6213 89.1521 36.0101 88.7283 36.2626C88.4279 36.4374 88.1453 36.457 87.8273 36.3597C87.368 36.2236 86.9618 35.9128 86.6614 35.5242C86.5731 35.4075 86.4849 35.3104 86.4673 35.155C86.4497 35.0383 86.4318 34.9024 86.4318 34.7664C86.414 34.5332 86.4849 34.3584 86.5203 34.125C86.5555 33.8725 86.6614 33.6391 86.6968 33.3866C86.732 33.1147 86.8029 32.862 86.8381 32.6092C86.8557 32.3763 86.8205 32.1235 86.8735 31.8906C86.9089 31.735 87.0146 31.5795 87.0678 31.4047C87.0146 31.5212 86.9265 31.6376 86.9089 31.735C86.8557 31.8906 86.8205 32.0458 86.7674 32.1816C86.7144 32.3373 86.6968 32.4734 86.6438 32.6286C86.5731 32.8036 86.5027 32.9591 86.4849 33.1535C86.4673 33.3283 86.4849 33.5033 86.4673 33.6781C86.4318 33.8529 86.3964 33.989 86.3964 34.1638C86.3964 34.2221 86.4318 34.3388 86.4318 34.3778C86.4318 34.4555 86.3964 34.5526 86.3964 34.6497C86.3964 34.8245 86.4318 34.9993 86.4497 35.1939C86.1671 34.6497 86.2199 34.1057 86.3082 33.5229C86.3964 32.9397 86.4673 32.3763 86.5907 31.8127C86.8205 30.6661 87.2974 29.5391 87.9688 28.6258C88.5161 27.8291 89.2404 27.2264 90.1939 27.4211C90.5473 27.4988 90.9358 27.6736 91.1655 28.0039C91.4131 28.3731 91.3953 28.8394 91.2716 29.2669C91.0421 30.0247 90.4589 30.6273 89.9116 31.1326C89.6818 31.3461 89.4345 31.5602 89.1697 31.735C88.9928 31.8514 88.7987 31.9294 88.6044 32.0068L88.3042 32.1235C88.1805 32.1623 88.1629 32.1429 88.1099 32.2596C88.0216 32.4538 88.0744 32.6482 88.0392 32.8424C88.004 33.0954 87.9512 33.3283 87.8977 33.581C87.8097 34.0473 87.6684 34.6497 87.7743 35.1356C87.9688 36.1265 89.4525 34.5913 89.717 34.3195C89.8937 34.1444 90.0526 33.9502 90.212 33.7752C90.3002 33.6587 90.4061 33.5617 90.4767 33.4447C90.4767 33.4447 90.5119 33.3476 90.5119 33.3089C90.7241 32.9397 91.0066 32.5898 91.2716 32.2402C91.5896 31.832 91.8722 31.4047 92.1726 30.9576C92.3314 30.705 92.7023 29.986 92.9848 30.5106V30.53C93.0024 30.5494 93.0024 30.5494 93.0024 30.53C93.0733 30.6857 93.0203 30.7828 92.932 30.8995Z" fill="white"/>
<path fill-rule="evenodd" clip-rule="evenodd" d="M95.4933 23.2821C95.4757 23.3015 95.4757 23.3404 95.4757 23.3598C95.8641 22.5824 96.3234 21.844 96.6944 21.0281C96.5179 21.3777 96.1997 21.6885 96.023 22.0577C95.8289 22.4659 95.6522 22.8545 95.4933 23.2821ZM94.9103 28.7229C96.2175 26.4106 97.701 23.9818 98.4961 21.3777C98.1957 22.3108 97.7543 23.2044 97.3478 24.0595C97.1005 24.5452 96.8711 25.0308 96.606 25.5167C96.4471 25.8082 96.1293 26.2552 96.023 26.5663C96.1645 26.061 96.5884 25.478 96.8357 25.0115L97.5778 23.4959C98.0014 22.563 98.6372 21.4164 98.6726 20.3284V20.309C98.7081 19.2791 97.913 20.4451 97.7895 20.6589C97.295 21.5334 96.9416 22.4853 96.5884 23.4181C95.9348 25.1475 95.4226 27.0129 94.9103 28.7229ZM92.6669 32.0461C92.5963 32.0461 92.508 32.4541 92.4552 32.901V32.8816C92.3316 33.5617 92.2607 34.2805 92.2255 34.98L92.2783 34.3585V34.4166C92.2783 34.2805 92.314 34.1638 92.3316 34.0282C92.4374 33.445 92.4552 32.7068 92.6669 32.1623C92.6669 32.1623 92.6669 32.1429 92.6848 32.1042C92.7026 32.0848 92.7026 32.0263 92.6669 32.0461ZM99.1671 30.9382C99.061 31.3655 98.8315 31.7544 98.6194 32.143C98.0897 33.076 97.6306 34.067 97.0476 34.9993C96.4116 36.0101 95.7228 37.04 94.9103 37.9143C94.2215 38.6334 93.2677 39.197 92.4374 38.3612C91.6956 37.6034 91.6956 36.2433 91.7486 35.2134C91.8192 34.1251 92.0842 33.076 92.314 32.0263C92.3316 31.9875 92.3139 31.5212 92.4022 31.3849C92.3846 31.4241 92.3846 31.5602 92.367 31.6767C92.4022 31.5408 92.4374 31.4048 92.4904 31.2687H92.4374C92.3846 30.8799 92.6317 30.2778 92.7378 29.9086C92.8613 29.4616 93.0025 28.9951 93.1441 28.5482C93.4088 27.7126 93.6916 26.8965 93.9387 26.061C94.1685 25.2255 94.5217 24.4287 94.8751 23.6513C95.034 23.2821 95.2105 22.9129 95.405 22.5437C95.4581 22.4466 95.8465 21.6111 95.9347 21.6304L95.7937 21.9607L96.3586 20.8918L96.341 20.9114C96.4292 20.7559 96.5531 20.4644 96.6412 20.348L97.0476 19.7454C97.295 19.4154 97.5954 18.9486 98.0014 18.8128C98.7787 18.5409 99.4145 19.4348 99.5206 20.1923L99.5382 20.2119V20.309C99.644 21.4944 99.008 22.8935 98.5313 23.9038C98.2486 24.5258 97.9486 25.2836 97.5067 25.7889C97.2065 26.1581 97.0476 26.5467 96.8001 26.9936C96.1293 28.1789 95.405 29.3643 94.6102 30.4526C94.4158 30.7247 94.2921 30.8995 94.2039 31.2493C94.0976 31.6183 94.0096 31.9875 93.9211 32.3763C93.8155 32.7649 93.7268 33.1535 93.6385 33.5423C93.6033 33.7171 93.4444 34.2611 93.4621 34.3001C93.4088 34.5333 93.3736 34.7858 93.3558 35.0192L93.4975 34.4362C93.5855 34.5914 93.4444 35.1746 93.4268 35.3494C93.3912 35.6409 93.3736 35.9518 93.3736 36.2626C93.3736 36.6319 93.3736 37.4674 93.8155 37.5451C94.4158 37.623 95.0518 36.6319 95.352 36.2239C96.0763 35.2717 96.6768 34.2028 97.2774 33.1535C97.5954 32.6092 97.8953 32.0655 98.1957 31.5019C98.3901 31.152 98.5489 30.6663 98.7963 30.3746C99.2026 29.9086 99.238 30.6274 99.1671 30.9382Z" fill="white"/>
<path fill-rule="evenodd" clip-rule="evenodd" d="M116.262 31.6575C116.263 31.6537 116.263 31.6494 116.262 31.6432C116.261 31.6491 116.261 31.6537 116.262 31.6575Z" fill="white"/>
<path fill-rule="evenodd" clip-rule="evenodd" d="M115.404 31.6731L115.413 31.6642C115.407 31.6661 115.405 31.6692 115.404 31.6731Z" fill="white"/>
<path fill-rule="evenodd" clip-rule="evenodd" d="M116.775 31.6254L116.774 31.6301C116.782 31.6295 116.792 31.6282 116.81 31.6266L116.775 31.6254Z" fill="white"/>
<path fill-rule="evenodd" clip-rule="evenodd" d="M113.585 31.7492L113.596 31.7479C113.591 31.7481 113.588 31.747 113.585 31.7492Z" fill="white"/>
<path fill-rule="evenodd" clip-rule="evenodd" d="M114.664 31.7189C114.661 31.7244 114.655 31.727 114.65 31.7291C114.657 31.7293 114.662 31.7278 114.664 31.7189Z" fill="white"/>
<path fill-rule="evenodd" clip-rule="evenodd" d="M117.082 31.8975L117.065 31.8779C117.066 31.8871 117.072 31.8962 117.082 31.8975Z" fill="white"/>
<path fill-rule="evenodd" clip-rule="evenodd" d="M117.587 31.7321L117.585 31.7262C117.585 31.7287 117.586 31.7305 117.587 31.7321Z" fill="white"/>
<path fill-rule="evenodd" clip-rule="evenodd" d="M117.375 31.6787C117.371 31.6811 117.366 31.6847 117.361 31.6887C117.368 31.6872 117.375 31.6862 117.375 31.6787Z" fill="white"/>
<path fill-rule="evenodd" clip-rule="evenodd" d="M117.355 31.6965L117.361 31.6903C117.358 31.6913 117.355 31.6928 117.355 31.6965Z" fill="white"/>
<path fill-rule="evenodd" clip-rule="evenodd" d="M106.986 31.9651C106.972 31.9636 106.958 31.9787 106.944 31.9908L106.986 31.9651Z" fill="white"/>
<path fill-rule="evenodd" clip-rule="evenodd" d="M111.942 31.8456L111.945 31.8356C111.942 31.8389 111.942 31.8423 111.942 31.8456Z" fill="white"/>
<path fill-rule="evenodd" clip-rule="evenodd" d="M106.961 32.149L106.95 32.1428C106.954 32.1475 106.957 32.149 106.961 32.149Z" fill="white"/>
<path fill-rule="evenodd" clip-rule="evenodd" d="M116.814 31.9921C116.802 32.0154 116.768 31.9949 116.771 32.0154C116.786 32.0096 116.81 32.0223 116.814 31.9921Z" fill="white"/>
<path fill-rule="evenodd" clip-rule="evenodd" d="M111.623 32.6414L111.612 32.6427C111.617 32.6427 111.62 32.6423 111.623 32.6414Z" fill="white"/>
<path fill-rule="evenodd" clip-rule="evenodd" d="M106.961 32.1476L106.973 32.1529C106.971 32.1491 106.97 32.1459 106.969 32.1426C106.967 32.1455 106.964 32.1471 106.961 32.1476Z" fill="white"/>
<path fill-rule="evenodd" clip-rule="evenodd" d="M110.23 31.8932H110.231L110.235 31.8883L110.23 31.8932Z" fill="white"/>
<path fill-rule="evenodd" clip-rule="evenodd" d="M110.139 31.8603C110.145 31.8578 110.152 31.8554 110.159 31.8526C110.148 31.8505 110.143 31.8546 110.139 31.8603Z" fill="white"/>
<path fill-rule="evenodd" clip-rule="evenodd" d="M106.944 31.9916L106.92 32.0063C106.929 32.0044 106.937 31.9982 106.944 31.9916Z" fill="white"/>
<path fill-rule="evenodd" clip-rule="evenodd" d="M109.161 31.8961C109.164 31.8948 109.167 31.8935 109.17 31.8913C109.166 31.8909 109.163 31.8926 109.161 31.8961Z" fill="white"/>
<path fill-rule="evenodd" clip-rule="evenodd" d="M114.733 31.724C114.736 31.7257 114.739 31.7265 114.742 31.728C114.742 31.7228 114.741 31.7193 114.733 31.724Z" fill="white"/>
<path fill-rule="evenodd" clip-rule="evenodd" d="M114.1 32.3387H114.1V32.3392L114.1 32.3387Z" fill="white"/>
<path fill-rule="evenodd" clip-rule="evenodd" d="M114.134 32.3098C114.123 32.3063 114.107 32.3222 114.1 32.338C114.111 32.337 114.122 32.3318 114.134 32.3098Z" fill="white"/>
<path fill-rule="evenodd" clip-rule="evenodd" d="M114.021 32.3352L114.026 32.3372C114.024 32.3361 114.023 32.3354 114.021 32.3352Z" fill="white"/>
<path fill-rule="evenodd" clip-rule="evenodd" d="M114.756 32.3051L114.756 32.3031L114.756 32.3049L114.756 32.3051Z" fill="white"/>
<path fill-rule="evenodd" clip-rule="evenodd" d="M114.611 32.3248C114.609 32.3203 114.605 32.3175 114.601 32.3153C114.604 32.3195 114.607 32.3231 114.611 32.3248Z" fill="white"/>
<path fill-rule="evenodd" clip-rule="evenodd" d="M113.664 32.4253V32.4244L113.663 32.4247L113.664 32.4253Z" fill="white"/>
<path fill-rule="evenodd" clip-rule="evenodd" d="M112.302 32.6728C112.439 32.6531 112.615 32.599 112.752 32.6029C112.78 32.5583 112.823 32.5541 112.866 32.5418L112.874 32.598L112.909 32.5776C112.925 32.5938 112.882 32.5899 112.909 32.6098L112.921 32.5737C112.925 32.5938 113.015 32.5811 112.956 32.6257L113.097 32.6161C113.129 32.6154 113.113 32.5676 113.148 32.5789C113.156 32.595 113.136 32.5911 113.14 32.6112C113.246 32.6453 113.253 32.4926 113.351 32.511L113.343 32.519C113.359 32.5029 113.39 32.5024 113.39 32.494C113.374 32.4381 113.375 32.5262 113.343 32.495C113.343 32.447 113.378 32.4663 113.374 32.43C113.398 32.4457 113.409 32.4175 113.429 32.4129C113.464 32.4406 113.511 32.4153 113.538 32.4511C113.554 32.4347 113.569 32.3864 113.604 32.3818C113.632 32.4173 113.601 32.418 113.636 32.4293L113.64 32.4011C113.668 32.4031 113.664 32.4114 113.664 32.4244C113.694 32.4232 113.687 32.3847 113.726 32.3992L113.706 32.4281C113.734 32.4148 113.745 32.4188 113.784 32.4175C113.784 32.4335 113.769 32.4337 113.757 32.4303C113.781 32.4695 113.792 32.4092 113.804 32.4126C113.8 32.4011 113.772 32.3979 113.784 32.3692C113.803 32.3724 113.822 32.3281 113.838 32.3594L113.819 32.3881C113.858 32.3629 113.838 32.3514 113.885 32.3582C113.883 32.3604 113.884 32.3673 113.884 32.3732C113.911 32.3349 113.951 32.3639 113.995 32.3624L113.987 32.371C114.004 32.3599 114.011 32.3339 114.021 32.3352C113.995 32.3212 114.001 32.3126 113.997 32.2861C114.033 32.3293 114.042 32.2285 114.098 32.2508C114.098 32.267 114.087 32.2874 114.071 32.2717C114.056 32.3205 114.057 32.3607 114.026 32.3854C114.046 32.3727 114.069 32.3641 114.065 32.3842L114.068 32.3401C114.08 32.3379 114.09 32.3398 114.1 32.3388C114.103 32.3104 114.071 32.2957 114.098 32.2751C114.129 32.2579 114.119 32.3185 114.122 32.2984C114.165 32.2768 114.137 32.2496 114.18 32.2602C114.176 32.2643 114.168 32.2727 114.164 32.269C114.196 32.2837 114.238 32.2543 114.251 32.3062C114.248 32.3185 114.248 32.3342 114.236 32.3308L114.236 32.3227C114.206 32.3639 114.263 32.3099 114.256 32.3582C114.252 32.3303 114.295 32.3327 114.314 32.3364L114.306 32.3045C114.362 32.2023 114.307 32.3688 114.37 32.3506C114.408 32.3251 114.354 32.3428 114.377 32.3183C114.404 32.321 114.416 32.3487 114.455 32.3305C114.467 32.3423 114.491 32.3572 114.496 32.393C114.519 32.3761 114.57 32.4019 114.581 32.3651C114.537 32.3393 114.543 32.4072 114.491 32.3651L114.502 32.3288C114.535 32.3271 114.577 32.305 114.6 32.3153C114.595 32.3092 114.592 32.3001 114.595 32.2923C114.641 32.2741 114.652 32.2376 114.699 32.2435C114.708 32.2751 114.68 32.2724 114.661 32.2773C114.693 32.2999 114.692 32.2761 114.739 32.2817C114.744 32.3099 114.708 32.2832 114.705 32.3114L114.755 32.2974L114.756 32.3031C114.759 32.255 114.795 32.3031 114.825 32.2859C114.899 32.2788 114.905 32.2141 114.943 32.1721C114.955 32.1839 114.959 32.1957 114.955 32.2079C114.935 32.1886 114.94 32.2047 114.935 32.218C114.959 32.2104 114.994 32.2584 114.981 32.279C115.02 32.2611 114.965 32.2555 114.988 32.2383L115.043 32.2359C115.034 32.2123 115.014 32.2089 115.041 32.1876C115.064 32.1788 115.076 32.1819 115.107 32.18C115.103 32.1925 115.12 32.2158 115.097 32.217C115.112 32.2241 115.136 32.2226 115.143 32.1981C115.107 32.18 115.196 32.1709 115.168 32.1363L115.204 32.1545C115.196 32.155 115.196 32.1709 115.185 32.1675C115.198 32.203 115.211 32.154 115.223 32.1491C115.235 32.155 115.267 32.1545 115.271 32.1682C115.28 32.1569 115.307 32.1621 115.314 32.18C115.329 32.1709 115.313 32.1562 115.316 32.1437L115.371 32.1405C115.376 32.1604 115.386 32.216 115.378 32.2246C115.397 32.2035 115.38 32.164 115.411 32.1623C115.397 32.2035 115.455 32.1878 115.434 32.2376C115.454 32.2643 115.505 32.2572 115.532 32.2437C115.546 32.2106 115.5 32.2295 115.499 32.1976C115.576 32.177 115.572 32.0885 115.631 32.0971L115.615 32.09C115.649 32.0679 115.645 32.0724 115.664 32.0432C115.658 32.0834 115.715 32.1449 115.773 32.1287C115.776 32.1082 115.736 32.0952 115.743 32.0626L115.781 32.0518C115.784 32.0545 115.781 32.0616 115.776 32.0672C115.81 32.0486 115.847 32.1101 115.852 32.0628L115.893 32.116L115.877 32.093C115.88 32.0728 115.918 32.0621 115.926 32.0532C115.964 32.0263 115.98 32.0415 116.004 32.0638C115.996 32.0483 115.974 32.0138 116.005 32.0035C116.012 32.0675 116.074 32.0187 116.076 32.052C116.089 32.0493 116.114 32.0662 116.113 32.0398L116.115 32.0797C116.112 32.0238 116.158 32.0204 116.193 32.0059C116.193 32.0824 116.231 31.9949 116.254 32.0618C116.256 32.0096 116.316 32.0334 116.317 31.989C116.344 31.9831 116.346 32.0309 116.355 32.0464L116.366 32.0255C116.382 32.0478 116.434 32.0447 116.467 32.0567L116.49 32.0076L116.503 32.0265C116.506 32.0143 116.529 32.0042 116.512 31.9897L116.528 31.9902C116.523 31.9405 116.548 31.9733 116.576 31.9481C116.584 31.9549 116.584 31.9669 116.578 31.9745C116.593 31.9731 116.59 31.9991 116.6 32.0143C116.588 32.0035 116.645 31.9182 116.601 31.9015C116.596 31.8819 116.618 31.8637 116.634 31.8706L116.649 31.9135L116.661 31.8642C116.684 31.8542 116.697 31.8811 116.717 31.8836C116.698 31.8892 116.684 31.975 116.734 31.9667C116.708 31.9763 116.698 32.003 116.685 32.014C116.696 32.0143 116.702 32.0179 116.688 32.039C116.726 32.0196 116.698 32.0101 116.736 31.9988C116.738 32.0388 116.751 32.0498 116.787 32.0586L116.758 32.0334C116.758 32.028 116.76 32.0243 116.761 32.0219C116.751 32.0189 116.748 32.013 116.744 31.9981C116.752 31.9973 116.783 31.9424 116.793 31.9655C116.746 31.9093 116.855 31.9081 116.826 31.8743C116.829 31.862 116.856 31.8559 116.861 31.8752C116.832 31.9101 116.891 31.9172 116.889 31.9454C116.9 31.9321 116.86 31.9199 116.874 31.9022C116.894 31.8968 116.911 31.9194 116.923 31.9304L116.916 31.939L116.948 31.9525C116.951 31.9321 116.915 31.9228 116.941 31.9088C116.95 31.9159 116.976 31.9017 116.977 31.9177C116.967 31.9468 116.981 31.9816 116.959 31.9919C116.978 31.9861 117.04 31.9728 117.01 31.9392L117.034 31.937C117.017 31.9223 116.972 31.8983 117.018 31.886L117.019 31.8941L117.048 31.8596L117.064 31.8779C117.063 31.8679 117.067 31.8581 117.079 31.8569C117.083 31.8684 117.095 31.8711 117.097 31.8873C117.131 31.8799 117.126 31.8603 117.129 31.848C117.148 31.8419 117.157 31.8493 117.15 31.874C117.178 31.875 117.224 31.8625 117.245 31.8809C117.278 31.8574 117.236 31.8735 117.254 31.8434C117.294 31.9081 117.376 31.8515 117.433 31.8338C117.409 31.776 117.448 31.8245 117.452 31.7679C117.441 31.789 117.513 31.8059 117.464 31.8309L117.495 31.8198C117.52 31.8498 117.446 31.8527 117.485 31.8931C117.519 31.8858 117.534 31.8159 117.578 31.8319C117.57 31.8767 117.608 31.8127 117.604 31.8613C117.597 31.8782 117.585 31.8752 117.574 31.8806L117.582 31.8878C117.661 31.8882 117.598 31.8336 117.634 31.7983C117.68 31.7853 117.675 31.826 117.681 31.8458C117.689 31.8529 117.712 31.8426 117.723 31.8296C117.698 31.8603 117.666 31.8108 117.676 31.7818C117.703 31.8274 117.746 31.775 117.756 31.7536C117.682 31.7125 117.709 31.7586 117.639 31.713C117.633 31.7296 117.64 31.7733 117.6 31.761C117.621 31.7358 117.595 31.737 117.587 31.7308C117.598 31.7551 117.563 31.7456 117.552 31.7578C117.539 31.7387 117.567 31.696 117.528 31.6916L117.528 31.7522C117.512 31.7456 117.529 31.7076 117.499 31.7269C117.512 31.6931 117.488 31.6796 117.53 31.6634C117.472 31.6208 117.454 31.7029 117.417 31.7306C117.421 31.7264 117.421 31.7183 117.424 31.7139C117.417 31.7306 117.402 31.7323 117.391 31.7377C117.363 31.7282 117.408 31.7073 117.399 31.6924L117.357 31.7004C117.356 31.6985 117.355 31.6975 117.355 31.6965C117.345 31.7063 117.335 31.7134 117.329 31.699C117.339 31.6781 117.342 31.6575 117.348 31.6409L117.309 31.6889C117.311 31.6686 117.268 31.661 117.298 31.6419L117.233 31.6602L117.222 31.6213C117.207 31.6308 117.208 31.6387 117.227 31.6406C117.204 31.635 117.136 31.7264 117.138 31.6458C117.09 31.6865 117.07 31.6769 117.01 31.7058C117.054 31.662 116.949 31.6666 116.998 31.6423C116.966 31.6291 116.965 31.6735 116.942 31.6835C116.918 31.6693 116.923 31.6289 116.945 31.6107L116.919 31.633L116.919 31.6252L116.897 31.6509C116.868 31.6333 116.886 31.6117 116.859 31.61L116.858 31.6463L116.837 31.6281C116.846 31.6433 116.831 31.6529 116.812 31.6583L116.811 31.6502L116.789 31.6605C116.809 31.6357 116.766 31.6561 116.774 31.6289C116.753 31.6301 116.753 31.6306 116.717 31.6423L116.726 31.6656C116.681 31.6933 116.72 31.6298 116.682 31.6333L116.687 31.6607C116.626 31.6218 116.596 31.7007 116.552 31.6764C116.575 31.6666 116.565 31.635 116.566 31.6431C116.531 31.658 116.473 31.6588 116.441 31.6978C116.422 31.659 116.418 31.6475 116.379 31.6347C116.352 31.6409 116.348 31.645 116.342 31.6698C116.314 31.6573 116.266 31.687 116.262 31.6578C116.258 31.6821 116.238 31.6563 116.225 31.6779L116.221 31.6664L116.226 31.6941C116.173 31.6374 116.151 31.7392 116.098 31.6911L116.105 31.6826L116.086 31.696C116.082 31.6843 116.089 31.6757 116.088 31.6595L115.996 31.6664L116.016 31.685C115.997 31.6904 115.987 31.7191 115.963 31.7049C115.995 31.658 115.932 31.7073 115.922 31.6757L115.941 31.662C115.914 31.6681 115.914 31.6681 115.919 31.696C115.885 31.7103 115.89 31.6458 115.86 31.6799L115.883 31.6781C115.892 31.6938 115.878 31.7188 115.862 31.7201C115.858 31.7164 115.846 31.7054 115.857 31.7002C115.831 31.7144 115.788 31.7054 115.777 31.7181C115.761 31.7112 115.764 31.6909 115.771 31.6823C115.714 31.7144 115.744 31.6803 115.687 31.7122L115.686 31.6963L115.668 31.7176L115.635 31.6872L115.648 31.7068C115.629 31.7117 115.618 31.7245 115.594 31.7176L115.601 31.6933C115.547 31.7125 115.534 31.661 115.485 31.7C115.481 31.6963 115.488 31.6877 115.492 31.6835C115.447 31.7262 115.451 31.6458 115.407 31.6965C115.409 31.6882 115.403 31.6789 115.404 31.672L115.383 31.6899L115.382 31.6578L115.369 31.7071L115.352 31.6757L115.345 31.6919C115.315 31.6338 115.286 31.6835 115.249 31.6414L115.259 31.6811C115.185 31.7735 115.068 31.6563 114.973 31.7054L114.972 31.6732L114.935 31.7149C114.91 31.6919 114.945 31.6865 114.937 31.6705C114.895 31.6926 114.923 31.7196 114.873 31.7338C114.845 31.7149 114.88 31.7093 114.891 31.697C114.845 31.7174 114.777 31.7421 114.742 31.7279C114.741 31.7321 114.74 31.738 114.742 31.7394C114.711 31.7571 114.668 31.747 114.633 31.7527C114.633 31.738 114.641 31.7345 114.65 31.7306C114.637 31.7299 114.619 31.7215 114.61 31.7377L114.621 31.7088C114.593 31.7061 114.544 31.7365 114.535 31.7046C114.539 31.7166 114.54 31.7407 114.517 31.7416C114.5 31.6941 114.456 31.7686 114.416 31.7463C114.42 31.734 114.447 31.7286 114.439 31.7289C114.42 31.7179 114.405 31.7426 114.389 31.7593L114.393 31.7392L114.309 31.7747C114.292 31.7272 114.228 31.7892 114.231 31.7532C114.2 31.7541 114.258 31.7723 114.22 31.7814C114.208 31.762 114.185 31.7943 114.184 31.7625L114.188 31.7586L114.161 31.7632L114.176 31.7306C114.153 31.7394 114.138 31.772 114.139 31.7961C114.115 31.7806 114.085 31.7978 114.072 31.7701L114.08 31.7617C114.018 31.7799 113.97 31.685 113.925 31.7426C113.921 31.7384 113.921 31.7306 113.928 31.7304L113.89 31.7318L113.897 31.7073L113.836 31.7492L113.835 31.7333C113.793 31.7306 113.727 31.7448 113.673 31.7546L113.681 31.7463C113.624 31.776 113.623 31.7355 113.581 31.7566C113.582 31.7522 113.583 31.7502 113.585 31.7492L113.546 31.7529L113.553 31.737C113.527 31.7733 113.468 31.6982 113.487 31.7259C113.472 31.7424 113.445 31.763 113.441 31.7828C113.399 31.788 113.43 31.7632 113.402 31.7514C113.372 31.7522 113.368 31.7801 113.326 31.7688L113.325 31.7529C113.306 31.7573 113.295 31.7696 113.267 31.7742L113.275 31.7659C113.233 31.8027 113.217 31.723 113.187 31.7956C113.167 31.784 113.132 31.7968 113.132 31.7644C113.078 31.7894 113.036 31.8024 112.982 31.8194C112.97 31.7674 112.97 31.8233 112.935 31.7956L112.939 31.8233C112.862 31.8321 112.769 31.7681 112.684 31.7848L112.68 31.7568L112.664 31.789C112.572 31.7814 112.452 31.7779 112.379 31.7821C112.355 31.7983 112.32 31.8348 112.282 31.8265L112.286 31.8223C112.22 31.8417 112.15 31.8574 112.076 31.8446C112.08 31.8326 112.073 31.8245 112.081 31.8167C112.065 31.8485 112.038 31.8201 112.023 31.8201L112.042 31.8402C112.022 31.8684 111.991 31.8439 111.98 31.8238L111.949 31.8556C111.946 31.8529 111.943 31.849 111.942 31.8444L111.937 31.8596L111.918 31.823C111.91 31.8311 111.868 31.8429 111.855 31.8792C111.852 31.8669 111.821 31.8588 111.844 31.8507L111.725 31.8456L111.744 31.8581C111.747 31.886 111.712 31.9056 111.693 31.8936C111.716 31.8699 111.693 31.8534 111.682 31.8333C111.667 31.8495 111.697 31.8576 111.689 31.8733C111.67 31.8934 111.627 31.9052 111.615 31.8927L111.627 31.8811C111.6 31.8924 111.585 31.8439 111.558 31.8473C111.535 31.8708 111.516 31.8505 111.523 31.8988C111.487 31.9101 111.508 31.8664 111.496 31.862C111.48 31.8858 111.43 31.8726 111.423 31.8483C111.406 31.9201 111.327 31.8262 111.322 31.8863L111.291 31.8534C111.291 31.8696 111.286 31.9056 111.263 31.913C111.24 31.8966 111.245 31.8686 111.237 31.8522L111.224 31.9123C111.094 31.8534 110.926 31.9022 110.785 31.852C110.723 31.8662 110.644 31.8954 110.571 31.889L110.579 31.8811L110.506 31.8664L110.559 31.8924C110.543 31.9 110.531 31.9118 110.516 31.9113C110.436 31.8878 110.329 31.861 110.231 31.8922C110.168 31.9615 110.188 31.8319 110.128 31.8824C110.133 31.876 110.134 31.8664 110.139 31.8596C110.074 31.8828 110.038 31.8951 109.973 31.936C109.98 31.8681 109.93 31.938 109.936 31.902L109.93 31.9299C109.916 31.913 109.881 31.9076 109.886 31.8878L109.857 31.9223L109.855 31.8941C109.816 31.8922 109.734 31.9164 109.713 31.8593C109.618 31.9034 109.468 31.8895 109.348 31.8784C109.332 31.9015 109.297 31.9032 109.27 31.9054L109.241 31.8716C109.213 31.8819 109.183 31.9243 109.157 31.9025C109.158 31.8988 109.159 31.8958 109.16 31.8939C109.132 31.9007 109.106 31.8826 109.079 31.9137C109.048 31.9118 109.018 31.8939 109.028 31.8625C109.025 31.9186 108.963 31.8544 108.963 31.8544C108.963 31.8544 108.567 31.8159 108.123 31.8091C107.679 31.8019 107.186 31.8218 106.986 31.965C106.972 31.9922 106.935 32.0084 106.948 32.042C106.92 32.051 106.909 32.0018 106.902 32.029C106.94 32.0491 106.888 32.1001 106.923 32.1361L106.899 32.1417C106.894 32.1611 106.933 32.1209 106.925 32.1564L106.934 32.105C106.953 32.1135 106.963 32.1248 106.969 32.1427C106.988 32.1234 107.003 32.0537 107.044 32.0861L107.032 32.0888C107.068 32.0883 107.053 32.1231 107.06 32.1319L107.052 32.131L107.081 32.1582C107.059 32.14 107.02 32.1802 107.04 32.178C107.081 32.1944 107.029 32.165 107.061 32.1601C107.081 32.1582 107.074 32.1856 107.073 32.2016L107.108 32.2011C107.106 32.2251 107.085 32.1989 107.098 32.2244L107.143 32.2008C107.149 32.2619 107.192 32.1736 107.21 32.2317C107.178 32.2447 107.213 32.2523 107.207 32.2717H107.285C107.292 32.2803 107.264 32.2896 107.276 32.2869C107.29 32.3043 107.301 32.2731 107.309 32.2739C107.315 32.2908 107.367 32.2758 107.364 32.316C107.416 32.3452 107.387 32.2658 107.436 32.2908C107.442 32.3156 107.397 32.295 107.418 32.3212L107.469 32.3143C107.464 32.3261 107.458 32.3536 107.439 32.3474C107.577 32.3862 107.648 32.5163 107.776 32.4877C107.793 32.5173 107.762 32.5068 107.749 32.5254C107.842 32.4896 107.877 32.5933 107.956 32.5921L107.958 32.5681C108.065 32.6455 108.198 32.6063 108.321 32.6389L108.306 32.622C108.324 32.5992 108.351 32.597 108.372 32.5867C108.375 32.5987 108.357 32.6377 108.392 32.6284C108.385 32.6198 108.37 32.6105 108.375 32.5987C108.48 32.6632 108.705 32.6514 108.879 32.6845C109.116 32.6681 109.372 32.7152 109.604 32.7012C109.569 32.7032 109.584 32.6438 109.61 32.6576C109.684 32.7576 109.737 32.6394 109.812 32.7076C109.947 32.6737 110.068 32.7595 110.193 32.6813L110.196 32.7095C110.215 32.7223 110.22 32.7027 110.239 32.6995L110.239 32.7078C110.286 32.7181 110.342 32.688 110.369 32.7007L110.37 32.6686C110.398 32.6656 110.385 32.6931 110.413 32.6742L110.412 32.6902L110.445 32.6593C110.443 32.7154 110.523 32.662 110.546 32.6867C110.581 32.6759 110.649 32.65 110.703 32.66C110.714 32.6884 110.781 32.687 110.823 32.7002C110.906 32.6914 111.024 32.6789 111.13 32.685L111.127 32.6485L111.154 32.6453C111.154 32.6531 111.158 32.6573 111.154 32.6612C111.176 32.7017 111.217 32.6463 111.24 32.671C111.225 32.6387 111.22 32.6666 111.205 32.6664C111.182 32.6497 111.202 32.6142 111.233 32.6308L111.233 32.6387L111.253 32.6188C111.256 32.6473 111.275 32.6598 111.278 32.688C111.369 32.6779 111.429 32.6269 111.523 32.637C111.514 32.6686 111.589 32.6264 111.573 32.6818C111.628 32.659 111.562 32.6377 111.586 32.598C111.602 32.5982 111.618 32.5828 111.621 32.6029C111.614 32.6164 111.635 32.636 111.622 32.6414L111.66 32.6357C111.664 32.6397 111.656 32.6475 111.652 32.6514C111.727 32.6164 111.788 32.6806 111.855 32.6455C111.86 32.6254 111.828 32.6411 111.832 32.621C111.899 32.5771 111.894 32.6536 111.957 32.622L111.945 32.65C111.965 32.6301 111.973 32.6061 112.008 32.6264C112.016 32.6585 111.98 32.6544 111.964 32.6701C111.988 32.6703 112.047 32.6588 112.028 32.6306C112.055 32.6186 112.067 32.647 112.082 32.6551C112.083 32.647 112.055 32.6348 112.071 32.6188C112.11 32.6352 112.169 32.6316 112.216 32.6321C112.216 32.6399 112.219 32.6519 112.215 32.6563C112.251 32.6122 112.251 32.6845 112.302 32.6728Z" fill="white"/>
<path fill-rule="evenodd" clip-rule="evenodd" d="M114.775 32.3082L114.756 32.3052C114.757 32.3128 114.757 32.3212 114.749 32.3303L114.775 32.3082Z" fill="white"/>
<path fill-rule="evenodd" clip-rule="evenodd" d="M113.884 32.3733C113.882 32.3759 113.879 32.3783 113.878 32.3822C113.882 32.3805 113.883 32.3769 113.884 32.3733Z" fill="white"/>
<path fill-rule="evenodd" clip-rule="evenodd" d="M113.671 32.4495C113.686 32.4412 113.672 32.4335 113.664 32.4254C113.664 32.4323 113.665 32.4401 113.671 32.4495Z" fill="white"/>
<path fill-rule="evenodd" clip-rule="evenodd" d="M115.271 32.1683C115.268 32.1719 115.266 32.176 115.267 32.1826C115.271 32.1764 115.272 32.1721 115.271 32.1683Z" fill="white"/>
<path fill-rule="evenodd" clip-rule="evenodd" d="M116.661 32.0148C116.659 32.0132 116.657 32.012 116.655 32.0095C116.656 32.0123 116.658 32.0142 116.661 32.0148Z" fill="white"/>
<path fill-rule="evenodd" clip-rule="evenodd" d="M116.578 31.9746C116.574 31.9749 116.57 31.9771 116.563 31.982C116.57 31.9828 116.575 31.9795 116.578 31.9746Z" fill="white"/>
<path fill-rule="evenodd" clip-rule="evenodd" d="M114.935 32.2179C114.93 32.2192 114.925 32.2217 114.921 32.2279C114.929 32.2266 114.933 32.2224 114.935 32.2179Z" fill="white"/>
<path fill-rule="evenodd" clip-rule="evenodd" d="M116.548 31.9906L116.528 31.9901C116.528 31.9921 116.528 31.9938 116.529 31.9963L116.548 31.9906Z" fill="white"/>
<path fill-rule="evenodd" clip-rule="evenodd" d="M116.686 32.0143C116.678 32.0143 116.668 32.0161 116.661 32.0137C116.672 32.0229 116.679 32.0217 116.686 32.0143Z" fill="white"/>
<path fill-rule="evenodd" clip-rule="evenodd" d="M115.776 32.0673L115.774 32.0682C115.761 32.0836 115.769 32.0766 115.776 32.0673Z" fill="white"/>
<path fill-rule="evenodd" clip-rule="evenodd" d="M116.47 32.0577L116.467 32.0568L116.462 32.0661L116.47 32.0577Z" fill="white"/>
<path fill-rule="evenodd" clip-rule="evenodd" d="M116.77 32.0146C116.767 32.0159 116.764 32.0178 116.762 32.0216C116.765 32.0221 116.768 32.0228 116.773 32.0236C116.771 32.0197 116.771 32.0171 116.77 32.0146Z" fill="white"/>
<path fill-rule="evenodd" clip-rule="evenodd" d="M116.072 32.078C116.076 32.0658 116.077 32.0577 116.077 32.052C116.07 32.0532 116.067 32.0589 116.072 32.078Z" fill="white"/>
<path fill-rule="evenodd" clip-rule="evenodd" d="M41.291 31.7096C41.2897 31.7129 41.2883 31.717 41.2872 31.7232C41.2897 31.7177 41.2908 31.7134 41.291 31.7096Z" fill="white"/>
<path fill-rule="evenodd" clip-rule="evenodd" d="M42.0174 31.9181L42.0081 31.9238C42.0136 31.9235 42.0161 31.9215 42.0174 31.9181Z" fill="white"/>
<path fill-rule="evenodd" clip-rule="evenodd" d="M40.859 31.5833L40.8606 31.5802C40.8541 31.5783 40.845 31.5757 40.8305 31.5714L40.859 31.5833Z" fill="white"/>
<path fill-rule="evenodd" clip-rule="evenodd" d="M43.6048 32.1549H43.5948C43.5992 32.1554 43.6021 32.1567 43.6048 32.1549Z" fill="white"/>
<path fill-rule="evenodd" clip-rule="evenodd" d="M42.6612 32.026C42.6645 32.0204 42.6697 32.0187 42.6746 32.0171C42.6685 32.0156 42.6636 32.0163 42.6612 32.026Z" fill="white"/>
<path fill-rule="evenodd" clip-rule="evenodd" d="M40.6861 31.2269L40.6943 31.2516C40.6957 31.2422 40.6932 31.2315 40.6861 31.2269Z" fill="white"/>
<path fill-rule="evenodd" clip-rule="evenodd" d="M40.2351 31.2042V31.2107C40.2362 31.2082 40.2358 31.2064 40.2351 31.2042Z" fill="white"/>
<path fill-rule="evenodd" clip-rule="evenodd" d="M40.3879 31.3306C40.3921 31.3296 40.397 31.3269 40.4019 31.3245C40.3968 31.324 40.3901 31.3222 40.3879 31.3306Z" fill="white"/>
<path fill-rule="evenodd" clip-rule="evenodd" d="M40.4088 31.3206L40.4019 31.3255C40.4053 31.3258 40.4084 31.3255 40.4088 31.3206Z" fill="white"/>
<path fill-rule="evenodd" clip-rule="evenodd" d="M49.1956 32.2478C49.2068 32.2531 49.2217 32.2428 49.2366 32.2347L49.1956 32.2478Z" fill="white"/>
<path fill-rule="evenodd" clip-rule="evenodd" d="M45.057 32.147L45.0546 32.157C45.057 32.1537 45.0575 32.1503 45.057 32.147Z" fill="white"/>
<path fill-rule="evenodd" clip-rule="evenodd" d="M49.2717 32.0837L49.2786 32.0919C49.2766 32.087 49.2743 32.0846 49.2717 32.0837Z" fill="white"/>
<path fill-rule="evenodd" clip-rule="evenodd" d="M40.9264 31.2216C40.9424 31.2047 40.9638 31.2335 40.9672 31.2144C40.9534 31.2147 40.9373 31.1958 40.9264 31.2216Z" fill="white"/>
<path fill-rule="evenodd" clip-rule="evenodd" d="M45.3151 31.3477L45.3236 31.3461C45.3196 31.3461 45.3169 31.3465 45.3151 31.3477Z" fill="white"/>
<path fill-rule="evenodd" clip-rule="evenodd" d="M49.2717 32.0826L49.2637 32.0752C49.2634 32.0786 49.2632 32.0814 49.263 32.0846C49.2661 32.0829 49.2692 32.082 49.2717 32.0826Z" fill="white"/>
<path fill-rule="evenodd" clip-rule="evenodd" d="M46.537 32.0491H46.5365L46.5339 32.054L46.537 32.0491Z" fill="white"/>
<path fill-rule="evenodd" clip-rule="evenodd" d="M46.6157 32.078C46.6105 32.0808 46.6054 32.0839 46.5996 32.0867C46.6083 32.0886 46.6128 32.0841 46.6157 32.078Z" fill="white"/>
<path fill-rule="evenodd" clip-rule="evenodd" d="M49.2365 32.2359L49.2601 32.2272C49.2528 32.2267 49.2448 32.2308 49.2365 32.2359Z" fill="white"/>
<path fill-rule="evenodd" clip-rule="evenodd" d="M47.4363 32.0316C47.4337 32.0329 47.4314 32.0343 47.4288 32.0365C47.4321 32.0369 47.4346 32.0356 47.4363 32.0316Z" fill="white"/>
<path fill-rule="evenodd" clip-rule="evenodd" d="M42.6015 32.0084C42.5998 32.0061 42.5971 32.0047 42.5951 32.0032C42.594 32.0079 42.594 32.0113 42.6015 32.0084Z" fill="white"/>
<path fill-rule="evenodd" clip-rule="evenodd" d="M43.2214 31.5044H43.2217V31.5039L43.2214 31.5044Z" fill="white"/>
<path fill-rule="evenodd" clip-rule="evenodd" d="M43.1895 31.5277C43.1988 31.5327 43.2133 31.5191 43.2215 31.5043C43.2117 31.5038 43.2024 31.5076 43.1895 31.5277Z" fill="white"/>
<path fill-rule="evenodd" clip-rule="evenodd" d="M43.2872 31.5184L43.2836 31.5159C43.285 31.5172 43.2861 31.5181 43.2872 31.5184Z" fill="white"/>
<path fill-rule="evenodd" clip-rule="evenodd" d="M42.6708 31.4316L42.6705 31.4337L42.671 31.4319L42.6708 31.4316Z" fill="white"/>
<path fill-rule="evenodd" clip-rule="evenodd" d="M42.7933 31.4397C42.7953 31.444 42.798 31.4472 42.8011 31.4496C42.7993 31.4452 42.7968 31.4419 42.7933 31.4397Z" fill="white"/>
<path fill-rule="evenodd" clip-rule="evenodd" d="M43.5947 31.4738V31.4744L43.5951 31.4742L43.5947 31.4738Z" fill="white"/>
<path fill-rule="evenodd" clip-rule="evenodd" d="M44.7445 31.3162C44.6301 31.3348 44.4817 31.3782 44.3672 31.3699C44.3429 31.4135 44.3066 31.4145 44.2702 31.4243L44.2658 31.3679L44.2355 31.3861C44.223 31.3692 44.2589 31.3755 44.2368 31.3542L44.2257 31.3895C44.223 31.3692 44.1475 31.3765 44.1983 31.3356L44.0806 31.3361C44.0543 31.3344 44.065 31.3834 44.0363 31.3694C44.0305 31.3525 44.0467 31.3581 44.0443 31.3378C43.9583 31.2944 43.9436 31.4459 43.8627 31.4192L43.8698 31.4118C43.8558 31.4265 43.8297 31.4241 43.829 31.4324C43.8386 31.4895 43.8439 31.4018 43.8682 31.4356C43.8656 31.4837 43.837 31.4611 43.8382 31.4976C43.8194 31.48 43.8078 31.507 43.7911 31.5096C43.7635 31.4795 43.7223 31.4998 43.7018 31.4614C43.6877 31.4758 43.6712 31.5226 43.6412 31.5236C43.6209 31.4851 43.6472 31.4878 43.6184 31.4729L43.6131 31.5006C43.5892 31.4952 43.5932 31.4876 43.5946 31.4746C43.5692 31.4726 43.5723 31.5121 43.5409 31.4932L43.5596 31.4665C43.5355 31.4763 43.5259 31.4714 43.4932 31.4677C43.4945 31.4518 43.5077 31.4535 43.5173 31.4582C43.5005 31.4165 43.4861 31.4751 43.4765 31.4702C43.4787 31.4827 43.5014 31.4888 43.4894 31.5158C43.4731 31.5101 43.4533 31.5526 43.4426 31.5192L43.4615 31.493C43.4266 31.5136 43.4419 31.5271 43.4032 31.5143C43.4054 31.5123 43.4047 31.5052 43.4058 31.4996C43.3795 31.5339 43.3486 31.4996 43.312 31.4949L43.3194 31.4878C43.3042 31.4964 43.2951 31.5209 43.2871 31.5185C43.3073 31.5359 43.3011 31.5437 43.302 31.5704C43.2764 31.5231 43.2574 31.6214 43.2133 31.5918C43.2148 31.5761 43.2264 31.557 43.2382 31.5749C43.2559 31.5285 43.2596 31.4886 43.2879 31.468C43.2706 31.478 43.2501 31.4837 43.2552 31.464L43.2478 31.5072C43.2376 31.5079 43.2296 31.505 43.2218 31.5045C43.216 31.532 43.2405 31.5511 43.2155 31.5678C43.1877 31.5805 43.2033 31.5222 43.1981 31.5415C43.16 31.557 43.1803 31.5879 43.1451 31.5714C43.1489 31.5678 43.1562 31.5606 43.1591 31.5651C43.1344 31.5462 43.0956 31.5687 43.091 31.5153C43.0954 31.504 43.097 31.4881 43.1063 31.4935L43.1057 31.5013C43.1357 31.465 43.0816 31.5099 43.093 31.4633C43.0934 31.4918 43.0577 31.4824 43.0417 31.4758L43.045 31.5087C42.9853 31.6013 43.0517 31.4449 42.9976 31.4535C42.9624 31.4729 43.0098 31.4636 42.9878 31.4846C42.9653 31.4773 42.9584 31.4479 42.924 31.4594C42.9156 31.4457 42.8977 31.427 42.8984 31.391C42.8772 31.4037 42.838 31.3704 42.824 31.404C42.8565 31.4376 42.8612 31.3692 42.8986 31.4192L42.8848 31.4538C42.8567 31.4496 42.8195 31.4645 42.801 31.4498C42.8044 31.4569 42.8055 31.4663 42.8026 31.4736C42.7616 31.4832 42.7473 31.5172 42.709 31.5028C42.7063 31.4699 42.7288 31.4778 42.7455 31.4763C42.7224 31.4481 42.7195 31.4721 42.6811 31.4577C42.6814 31.4295 42.7074 31.4621 42.7141 31.4346L42.67 31.4395L42.6704 31.4336C42.6606 31.4805 42.6379 31.4265 42.6105 31.4381C42.5481 31.4319 42.5329 31.4947 42.4951 31.528C42.4868 31.5146 42.485 31.502 42.4899 31.4908C42.5035 31.5133 42.5022 31.4967 42.5087 31.4849C42.487 31.4873 42.4665 31.4334 42.4801 31.4158C42.4454 31.4256 42.4899 31.442 42.4681 31.4542L42.4224 31.4457C42.4258 31.4707 42.4414 31.4778 42.4159 31.4935C42.3952 31.4976 42.3859 31.4918 42.3598 31.4871C42.3647 31.4756 42.3549 31.4496 42.3745 31.4535C42.3627 31.443 42.3431 31.4395 42.3333 31.4621C42.3598 31.4871 42.284 31.477 42.3019 31.517L42.2751 31.492C42.2818 31.4932 42.284 31.477 42.2932 31.4832C42.2887 31.4454 42.2686 31.4908 42.2584 31.493C42.2488 31.4846 42.223 31.4785 42.2223 31.4643C42.212 31.4731 42.1907 31.4621 42.1884 31.443C42.1742 31.4481 42.1849 31.4665 42.1797 31.4778L42.1343 31.4685C42.1341 31.4479 42.1361 31.3915 42.1439 31.3846C42.1245 31.401 42.1312 31.4435 42.1053 31.4378C42.1245 31.401 42.0741 31.403 42.1008 31.3596C42.089 31.3287 42.0465 31.3241 42.0217 31.3314C42.0037 31.3603 42.0451 31.352 42.04 31.3839C41.9727 31.3863 41.9584 31.4736 41.9114 31.4515L41.923 31.4621C41.8905 31.4756 41.8943 31.4721 41.8733 31.4959C41.8865 31.4582 41.8519 31.3849 41.8011 31.3856C41.7944 31.4047 41.8243 31.4275 41.8123 31.4577L41.7784 31.4584C41.7764 31.4547 41.7808 31.4488 41.7857 31.4444C41.7543 31.454 41.7372 31.3846 41.7227 31.4295L41.7002 31.3672L41.7086 31.3934C41.7022 31.4126 41.6681 31.4133 41.6603 31.4197C41.6233 31.4359 41.6133 31.4172 41.5981 31.3888C41.6017 31.4059 41.6115 31.4454 41.5838 31.4469C41.593 31.3831 41.5313 31.4133 41.5366 31.3807C41.5259 31.3795 41.5094 31.3562 41.5045 31.3827L41.5119 31.3429C41.5016 31.3981 41.4626 31.3885 41.4312 31.393C41.449 31.3194 41.3973 31.393 41.3942 31.3223C41.3808 31.3724 41.3378 31.3331 41.326 31.3755C41.3026 31.3738 41.3122 31.3268 41.3089 31.3096L41.295 31.3263C41.2872 31.3003 41.2444 31.2883 41.2215 31.2667L41.1905 31.3069L41.185 31.2846C41.1792 31.2954 41.1582 31.2981 41.168 31.3172L41.1555 31.3118C41.1464 31.3608 41.135 31.3219 41.1056 31.3378C41.1009 31.3287 41.1045 31.3172 41.1112 31.3118C41.0985 31.3089 41.1081 31.2848 41.1036 31.2669C41.1107 31.2812 41.0426 31.3456 41.0738 31.3746C41.0729 31.3949 41.0501 31.4055 41.0388 31.3942L41.0383 31.3488L41.0154 31.3922C40.9942 31.3947 40.9904 31.3648 40.9753 31.3562C40.9922 31.3572 41.0261 31.2797 40.9837 31.2714C41.0069 31.2706 41.022 31.2486 41.035 31.2414C41.0265 31.2383 41.0229 31.2329 41.0397 31.2172C41.0042 31.224 41.0241 31.2417 40.9904 31.2402C40.9989 31.2015 40.992 31.187 40.9659 31.1672L40.9822 31.2005C40.9804 31.2052 40.9784 31.2086 40.9764 31.2103C40.9837 31.2164 40.9848 31.2231 40.9839 31.2385C40.9777 31.2368 40.9376 31.279 40.9363 31.2539C40.9588 31.3223 40.8703 31.2888 40.885 31.3304C40.8792 31.341 40.8558 31.3383 40.8569 31.3179C40.8897 31.2942 40.8442 31.2689 40.8536 31.2422C40.8413 31.2512 40.8698 31.2763 40.8536 31.288C40.8366 31.287 40.8291 31.2601 40.8219 31.2459L40.8304 31.24L40.8081 31.2169C40.8005 31.2356 40.8266 31.2554 40.8017 31.2606C40.797 31.251 40.7718 31.2562 40.7751 31.2407C40.7914 31.2162 40.7898 31.1784 40.8108 31.1762C40.7939 31.1755 40.7408 31.1686 40.7553 31.2098L40.7359 31.2044C40.7451 31.2235 40.774 31.2608 40.7337 31.2579L40.7355 31.2498L40.7025 31.2736L40.6945 31.2505C40.6929 31.2606 40.6869 31.2687 40.6769 31.2657C40.6764 31.2532 40.6677 31.2463 40.6715 31.2307C40.6419 31.2258 40.6403 31.2461 40.6345 31.2566C40.6174 31.2557 40.6127 31.2459 40.6249 31.2245C40.6033 31.214 40.5632 31.2096 40.5521 31.1853C40.5184 31.1958 40.5565 31.1951 40.5336 31.2174C40.5213 31.1426 40.4395 31.1681 40.3889 31.1637C40.3898 31.227 40.3742 31.1672 40.354 31.2191C40.3682 31.203 40.317 31.1608 40.3633 31.1554L40.3359 31.1547C40.325 31.1171 40.3843 31.1412 40.3664 31.0894C40.337 31.0838 40.3043 31.1441 40.2744 31.1132C40.2949 31.0742 40.245 31.1201 40.2635 31.0762C40.2737 31.0627 40.2824 31.0698 40.2927 31.0691L40.2884 31.0593C40.2272 31.0306 40.2595 31.1042 40.2196 31.1245C40.1792 31.1196 40.196 31.0833 40.198 31.063C40.1937 31.0532 40.1726 31.0546 40.1601 31.063C40.1895 31.0434 40.1982 31.1007 40.1815 31.1245C40.1748 31.072 40.1244 31.1056 40.1095 31.1216C40.1543 31.1868 40.1476 31.1341 40.1884 31.2022C40.1991 31.1887 40.2071 31.1456 40.2347 31.1713C40.2102 31.1878 40.2309 31.1958 40.2352 31.2042C40.2343 31.1779 40.2592 31.1995 40.2711 31.1917C40.2755 31.2142 40.2399 31.2441 40.2697 31.2625L40.2882 31.2057C40.2989 31.2179 40.2737 31.2471 40.3034 31.24C40.2826 31.2667 40.298 31.2885 40.2597 31.2885C40.2925 31.3496 40.3317 31.2787 40.3696 31.2662C40.3655 31.2689 40.3633 31.2765 40.3593 31.2797C40.3696 31.2662 40.3825 31.2704 40.393 31.2696C40.4126 31.2883 40.37 31.2915 40.3725 31.3091L40.4088 31.3162C40.4092 31.3184 40.4092 31.3194 40.4088 31.3206C40.4199 31.3147 40.4302 31.3116 40.4306 31.327C40.4159 31.3432 40.4079 31.3618 40.3974 31.3753L40.4435 31.3437C40.4355 31.3621 40.4683 31.3844 40.4384 31.3922L40.4964 31.3974L40.4932 31.4381C40.5082 31.4341 40.51 31.4265 40.4948 31.4177C40.5124 31.4314 40.5935 31.3689 40.5683 31.4444C40.6187 31.4224 40.6321 31.4395 40.6893 31.4317C40.6412 31.4591 40.7281 31.4883 40.6811 31.4954C40.7036 31.5185 40.717 31.4768 40.7381 31.4746C40.754 31.4954 40.7386 31.5327 40.7154 31.5427L40.7428 31.5298L40.7408 31.5376L40.7658 31.5199C40.7843 31.5459 40.7633 31.5606 40.7854 31.5709L40.7965 31.5369L40.8086 31.5609C40.8054 31.5437 40.8204 31.5393 40.8375 31.5403L40.8358 31.5479L40.8571 31.5459C40.8333 31.5629 40.8743 31.5572 40.8607 31.5805C40.8776 31.5861 40.8781 31.5856 40.9104 31.5861L40.9093 31.5609C40.9534 31.5489 40.9048 31.5972 40.9374 31.6062L40.94 31.578C40.9797 31.6349 41.0254 31.568 41.0555 31.605C41.0343 31.6075 41.0341 31.6406 41.0356 31.6327C41.0677 31.6286 41.1161 31.646 41.1529 31.6185C41.158 31.6609 41.1587 31.6737 41.1883 31.6982C41.2121 31.7001 41.2164 31.6972 41.2277 31.6754C41.248 31.6957 41.2944 31.68 41.291 31.7095C41.2999 31.6871 41.3109 31.7178 41.3265 31.7001L41.3273 31.7126L41.3296 31.6847C41.3608 31.7538 41.4029 31.6617 41.4361 31.7229L41.4279 31.7293L41.4468 31.7212C41.4477 31.734 41.4397 31.7401 41.4365 31.756L41.5159 31.7752L41.5032 31.7514C41.5203 31.7516 41.5355 31.7269 41.5522 31.7472C41.5145 31.7832 41.5785 31.7536 41.5794 31.7862L41.5607 31.7945C41.5847 31.7955 41.5847 31.7955 41.5865 31.7673C41.6184 31.7622 41.6003 31.8237 41.6326 31.7982L41.6126 31.7935C41.609 31.7766 41.6264 31.756 41.6396 31.7587C41.6422 31.7634 41.65 31.7776 41.6393 31.7793C41.665 31.7725 41.6991 31.7923 41.7111 31.7828C41.7229 31.7935 41.7162 31.8127 41.7082 31.8193C41.7628 31.8026 41.7309 31.8281 41.7855 31.8117L41.7826 31.8276L41.8027 31.8117L41.8238 31.849L41.8172 31.8271C41.8345 31.8269 41.8464 31.8173 41.8651 31.8296L41.8542 31.8519C41.9036 31.8458 41.905 31.899 41.9542 31.8722C41.9569 31.8769 41.9491 31.8833 41.9449 31.8867C41.9914 31.8553 41.9723 31.933 42.0197 31.8936C42.0162 31.9012 42.0197 31.9117 42.0175 31.9181L42.0384 31.9056L42.0333 31.937L42.0543 31.8926L42.0627 31.9267L42.0719 31.9127C42.0859 31.9762 42.1202 31.9343 42.1436 31.984L42.143 31.9431C42.2227 31.8693 42.3019 32.0088 42.3921 31.9808L42.3876 32.0125L42.4269 31.9789C42.4436 32.0063 42.4128 32.0051 42.4175 32.022C42.4572 32.0088 42.4373 31.9767 42.4826 31.9728C42.5035 31.9965 42.4728 31.9956 42.461 32.0056C42.504 31.9946 42.567 31.9823 42.5949 32.0032C42.596 31.9987 42.5982 31.9936 42.5969 31.9914C42.6259 31.9799 42.6613 31.9975 42.6921 31.9985C42.6903 32.0132 42.6825 32.0149 42.6744 32.0169C42.6854 32.0201 42.6996 32.0316 42.7103 32.0174L42.6967 32.0441C42.7199 32.0517 42.7669 32.0309 42.7701 32.064C42.768 32.0512 42.7709 32.0274 42.791 32.0309C42.799 32.0806 42.8478 32.0147 42.8786 32.0434C42.8739 32.0546 42.8501 32.0554 42.8565 32.0564C42.8721 32.0703 42.8884 32.0488 42.9038 32.0348L42.898 32.0542L42.9757 32.0326C42.9842 32.0823 43.0479 32.0309 43.0406 32.0662C43.068 32.0698 43.0192 32.0429 43.054 32.0397C43.0618 32.0608 43.0854 32.0321 43.0823 32.064L43.0782 32.0671L43.1025 32.0669L43.0858 32.0968C43.1068 32.0917 43.1237 32.061 43.1259 32.0372C43.1444 32.0559 43.1732 32.0431 43.1805 32.072L43.173 32.0792C43.2287 32.0698 43.2605 32.1706 43.3062 32.1194C43.3093 32.1243 43.3087 32.1319 43.3018 32.1311L43.3359 32.1353L43.3267 32.1583L43.3847 32.1253L43.3833 32.1409C43.4205 32.15 43.4791 32.1429 43.5273 32.14L43.5199 32.1476C43.5732 32.1245 43.5701 32.1645 43.6091 32.1483C43.6075 32.1525 43.6062 32.1539 43.6048 32.1549L43.6394 32.1554L43.6314 32.1706C43.6576 32.1373 43.7033 32.2182 43.6884 32.1885C43.7031 32.1738 43.7283 32.1564 43.733 32.1368C43.7709 32.1355 43.7419 32.1574 43.7648 32.1711C43.7922 32.1733 43.7974 32.1458 43.8341 32.1606L43.8332 32.1767C43.8504 32.1743 43.8613 32.163 43.8856 32.1608L43.8783 32.1684C43.9179 32.1353 43.9268 32.2165 43.9583 32.1468C43.9745 32.1598 44.006 32.1503 44.0042 32.1824C44.0532 32.1628 44.0911 32.1522 44.1397 32.1392C44.1475 32.1919 44.1501 32.136 44.1795 32.1659L44.1773 32.1378C44.2457 32.1331 44.3251 32.2037 44.4008 32.1902L44.4035 32.2187L44.4182 32.187C44.5 32.1983 44.6059 32.2066 44.6711 32.2054C44.6921 32.1897 44.7233 32.1542 44.7574 32.1628L44.7538 32.1669C44.8124 32.1481 44.8739 32.1333 44.9388 32.1466C44.9352 32.1588 44.9419 32.1669 44.935 32.1748C44.949 32.1429 44.9727 32.1713 44.9865 32.1716L44.9695 32.1512C44.9865 32.1238 45.0137 32.1478 45.0239 32.1679L45.0511 32.1358C45.0531 32.1385 45.0562 32.1424 45.0569 32.1471L45.0613 32.1319L45.0785 32.1682C45.0852 32.1598 45.1226 32.1483 45.1327 32.1118C45.136 32.124 45.1634 32.1321 45.1429 32.14L45.2485 32.1446L45.2314 32.1324C45.2276 32.1044 45.2583 32.0846 45.2751 32.0963C45.2552 32.1203 45.2757 32.1365 45.286 32.1566C45.2991 32.1402 45.2722 32.1324 45.2786 32.1167C45.2956 32.0963 45.3326 32.0838 45.3426 32.0958L45.3328 32.1078C45.3562 32.0958 45.3702 32.1439 45.3938 32.1397C45.4139 32.1157 45.4311 32.1353 45.4235 32.0875C45.454 32.0752 45.4375 32.1191 45.4478 32.1233C45.4609 32.099 45.505 32.1108 45.5119 32.1351C45.5246 32.0627 45.5966 32.1542 45.5991 32.0941L45.6265 32.1257C45.6263 32.1096 45.6289 32.0735 45.649 32.0654C45.6693 32.0811 45.6666 32.1093 45.6733 32.1253L45.6824 32.0649C45.7979 32.1196 45.9405 32.0662 46.0646 32.1091C46.1179 32.0922 46.1834 32.0603 46.2464 32.0642L46.24 32.0723L46.303 32.0841L46.2562 32.0598C46.2694 32.0522 46.2794 32.0399 46.2926 32.0397C46.3625 32.0593 46.4544 32.0841 46.5366 32.049C46.5874 31.9774 46.5751 32.1076 46.6246 32.0546C46.6204 32.0613 46.6193 32.0711 46.6155 32.0779C46.6705 32.0517 46.6997 32.0392 46.7541 31.9965C46.7501 32.0649 46.7902 31.9938 46.7864 32.0296L46.7902 32.0017C46.8029 32.0181 46.8323 32.023 46.8287 32.0429L46.8521 32.0073L46.8553 32.0358C46.8876 32.0363 46.9569 32.0105 46.9749 32.0679C47.0534 32.0252 47.1811 32.0321 47.2796 32.0461C47.2936 32.0233 47.3228 32.0215 47.3455 32.0193L47.3694 32.0534C47.3925 32.0434 47.4179 32.0012 47.4389 32.023C47.4389 32.0269 47.4378 32.0296 47.4362 32.0316C47.4601 32.0247 47.4817 32.0436 47.5042 32.0137C47.5298 32.0164 47.5539 32.0358 47.545 32.0669C47.5494 32.0108 47.5987 32.0772 47.5987 32.0772C47.5987 32.0772 47.9238 32.1213 48.2737 32.1794C48.6258 32.2343 48.999 32.3204 49.1956 32.2483C49.2145 32.2267 49.2484 32.2216 49.2491 32.1868C49.2742 32.1861 49.2671 32.2353 49.2809 32.2113C49.2578 32.1821 49.315 32.149 49.2979 32.1051L49.319 32.1069C49.3297 32.0902 49.2856 32.1169 49.3025 32.0858L49.2796 32.1314C49.2671 32.1181 49.2624 32.1044 49.2629 32.086C49.2417 32.0985 49.2096 32.1603 49.186 32.1181L49.1963 32.1186C49.1682 32.1093 49.19 32.0806 49.1871 32.0703L49.1931 32.0733L49.178 32.0392C49.19 32.0627 49.2332 32.0358 49.2168 32.0323C49.1878 32.0049 49.2212 32.0475 49.1942 32.0431C49.178 32.0392 49.1909 32.0152 49.1967 32.0005L49.168 31.9907C49.1764 31.9683 49.1862 31.9995 49.1827 31.9715L49.1392 31.9808C49.1508 31.9208 49.092 31.9926 49.0926 31.9316C49.1225 31.9286 49.0962 31.9112 49.106 31.8943L49.0403 31.8757C49.0367 31.8656 49.0625 31.8634 49.0521 31.8632C49.0443 31.8431 49.0278 31.8708 49.0213 31.8681C49.0202 31.8504 48.973 31.8526 48.9852 31.8146C48.9478 31.7739 48.9533 31.8575 48.9181 31.822C48.9188 31.7965 48.9525 31.8271 48.9406 31.7967L48.8954 31.7911C48.9021 31.781 48.9135 31.7558 48.9284 31.7663C48.8212 31.6945 48.782 31.5594 48.6645 31.5604C48.6545 31.5278 48.6795 31.5442 48.6944 31.5283C48.6068 31.5442 48.5923 31.4383 48.5213 31.428L48.5161 31.4513C48.4308 31.3579 48.3058 31.3795 48.199 31.3353L48.2104 31.354C48.1923 31.3748 48.1676 31.3738 48.1482 31.3822C48.1469 31.3697 48.1669 31.3326 48.1337 31.3383C48.1395 31.3476 48.1522 31.3586 48.1469 31.3697C48.0584 31.2917 47.8554 31.2902 47.701 31.2503C47.489 31.2569 47.2611 31.2056 47.0563 31.2255C47.0875 31.2228 47.075 31.2824 47.0514 31.2691C46.9854 31.1701 46.9402 31.287 46.8733 31.2213C46.7563 31.2593 46.646 31.1748 46.5404 31.2591L46.5368 31.2307C46.5199 31.2189 46.5165 31.2387 46.4994 31.2427V31.2346C46.4584 31.2265 46.4109 31.2581 46.3868 31.2459L46.3871 31.278C46.3632 31.2819 46.3732 31.2539 46.3496 31.2736L46.3494 31.2576L46.3224 31.2897C46.322 31.2336 46.2547 31.2902 46.2342 31.2662C46.2039 31.2785 46.1466 31.3067 46.0991 31.2988C46.0884 31.2704 46.0312 31.275 45.994 31.2635C45.9238 31.2763 45.8226 31.2934 45.7323 31.2905L45.7363 31.3265L45.7132 31.3309C45.713 31.3226 45.7096 31.3189 45.7127 31.3145C45.692 31.2748 45.6595 31.3314 45.6392 31.3074C45.653 31.3395 45.6559 31.3113 45.6693 31.3111C45.6896 31.327 45.6735 31.3633 45.6463 31.3474V31.3395L45.6301 31.3599C45.6263 31.3317 45.6093 31.3199 45.6053 31.2919C45.5289 31.3047 45.4794 31.3574 45.3999 31.3498C45.4061 31.3177 45.3435 31.3621 45.3562 31.3059C45.31 31.3302 45.3666 31.3498 45.3473 31.39C45.3341 31.3903 45.321 31.4062 45.3174 31.3861C45.3227 31.3724 45.3047 31.3535 45.3152 31.3478L45.2835 31.3542C45.2804 31.3505 45.2869 31.3422 45.2902 31.3383C45.2274 31.3751 45.1741 31.3106 45.1184 31.3459C45.1153 31.366 45.1416 31.3503 45.1385 31.3704C45.0825 31.414 45.0854 31.3378 45.0328 31.3697L45.0426 31.3417C45.0261 31.3616 45.0197 31.3856 44.99 31.3652C44.9834 31.3331 45.013 31.3375 45.0261 31.3214C45.0063 31.3214 44.9571 31.3329 44.9736 31.3613C44.9504 31.3733 44.9406 31.3449 44.9276 31.3368C44.9274 31.3447 44.9504 31.3572 44.9374 31.3728C44.9047 31.3562 44.8554 31.3591 44.8162 31.3579C44.8162 31.35 44.8131 31.338 44.8162 31.3339C44.7866 31.3773 44.787 31.3052 44.7445 31.3162Z" fill="white"/>
<path fill-rule="evenodd" clip-rule="evenodd" d="M42.6553 31.4257L42.6707 31.4323C42.6713 31.4249 42.6727 31.4165 42.6805 31.4094L42.6553 31.4257Z" fill="white"/>
<path fill-rule="evenodd" clip-rule="evenodd" d="M43.4058 31.5009C43.4078 31.4978 43.41 31.4953 43.4118 31.4911C43.408 31.4925 43.4064 31.4964 43.4058 31.5009Z" fill="white"/>
<path fill-rule="evenodd" clip-rule="evenodd" d="M43.5904 31.4496C43.577 31.4564 43.5886 31.4656 43.5946 31.4747C43.5951 31.4679 43.5951 31.4597 43.5904 31.4496Z" fill="white"/>
<path fill-rule="evenodd" clip-rule="evenodd" d="M42.2222 31.4638C42.2253 31.4609 42.2273 31.4571 42.2275 31.4504C42.2233 31.4557 42.222 31.4597 42.2222 31.4638Z" fill="white"/>
<path fill-rule="evenodd" clip-rule="evenodd" d="M41.0549 31.2494C41.056 31.2514 41.0569 31.2526 41.0587 31.2551C41.0582 31.2528 41.0569 31.2509 41.0549 31.2494Z" fill="white"/>
<path fill-rule="evenodd" clip-rule="evenodd" d="M41.1113 31.3128C41.1144 31.3138 41.1186 31.3135 41.1251 31.3104C41.1197 31.3067 41.1153 31.3088 41.1113 31.3128Z" fill="white"/>
<path fill-rule="evenodd" clip-rule="evenodd" d="M42.5087 31.4862C42.5132 31.4857 42.5176 31.4835 42.5221 31.4762C42.5152 31.4762 42.5114 31.4807 42.5087 31.4862Z" fill="white"/>
<path fill-rule="evenodd" clip-rule="evenodd" d="M41.1398 31.3054L41.1554 31.3118C41.1558 31.3101 41.1563 31.3084 41.1567 31.3059L41.1398 31.3054Z" fill="white"/>
<path fill-rule="evenodd" clip-rule="evenodd" d="M41.0351 31.2414C41.0411 31.2438 41.0498 31.2455 41.0549 31.2491C41.0482 31.2393 41.0418 31.2378 41.0351 31.2414Z" fill="white"/>
<path fill-rule="evenodd" clip-rule="evenodd" d="M41.7858 31.4456L41.7875 31.445C41.8023 31.4316 41.7933 31.4369 41.7858 31.4456Z" fill="white"/>
<path fill-rule="evenodd" clip-rule="evenodd" d="M41.2195 31.2659L41.2215 31.2678L41.2277 31.2592L41.2195 31.2659Z" fill="white"/>
<path fill-rule="evenodd" clip-rule="evenodd" d="M40.9672 31.2143C40.9705 31.2141 40.9734 31.2134 40.9763 31.2102C40.9736 31.2088 40.9712 31.2069 40.9676 31.205C40.9678 31.209 40.9676 31.2117 40.9672 31.2143Z" fill="white"/>
<path fill-rule="evenodd" clip-rule="evenodd" d="M41.5468 31.3557C41.5406 31.3671 41.5377 31.3751 41.5368 31.3814C41.5422 31.3819 41.5464 31.3769 41.5468 31.3557Z" fill="white"/>
</g>
</g>
<defs>
<clipPath id="clip0_9_8">
<rect width="158" height="38" fill="white" transform="translate(0 0.777832)"/>
</clipPath>
</defs>
</svg>
